<svg width="175" height="263" viewBox="0 0 175 263" fill="none" xmlns="http://www.w3.org/2000/svg">
<path fill-rule="evenodd" clip-rule="evenodd" d="M145.283 209.394C143.325 210.928 142.406 213.149 142.013 215.647C141.796 217.024 140.538 217.213 139.592 217.455C138.774 217.665 138.018 217.693 137.356 218.368C137.082 218.648 136.228 218.709 135.869 218.49C134.721 217.79 133.492 217.279 132.432 216.345C128.7 213.062 125.965 209.001 123.404 204.858C120.792 200.63 118.058 196.448 116.058 191.863C115.436 190.435 115.41 190.447 116.976 189.339C118.25 191.76 119.437 194.219 120.811 196.568C121.902 198.432 123.22 200.16 124.548 202.11C124.861 201.325 124.854 200.822 124.368 200.122C121.727 196.306 119.219 192.403 117.23 187.935C117.548 187.728 117.932 187.476 118.314 187.228C118.402 187.304 118.599 187.474 118.936 187.766V186.174C119.88 185.986 120.735 185.817 121.849 185.596C122.717 186.001 123.13 187.537 124.559 187.728C124.513 189.282 125.871 190.057 126.554 191.192C127.401 192.6 128.55 193.826 129.362 194.867C130.28 194.745 130.966 194.617 131.658 194.568C134.089 194.398 134.03 194.475 135.545 195.81C137.228 197.294 138.379 199.37 140.549 200.313C140.689 200.373 140.845 200.586 140.852 200.734C140.919 202.296 141.794 202.863 143.26 203.242C144.49 203.561 144.84 204.858 144.897 206.133C144.942 207.111 145.122 208.082 145.283 209.394Z" fill="#FFD44B"/>
<path fill-rule="evenodd" clip-rule="evenodd" d="M114.282 136.695C112.861 135.274 111.669 133.883 110.279 132.729C106.291 129.421 104.398 124.74 102.013 120.383C100.942 118.426 101.248 116.229 101.294 114.113C101.303 113.745 101.81 113.388 102.107 113.003C102.512 113.805 102.892 114.557 103.447 115.653V111.735C104.281 111.322 105.105 111.096 105.667 110.585C106.365 109.95 107.153 110.076 107.793 110.237C108.538 110.424 109.174 111.046 109.923 111.522C109.484 113.578 110.293 115.3 111.296 117.094C112.194 116.851 113.254 117.489 114.153 116.567C114.343 116.371 114.968 116.355 115.238 116.517C117.439 117.842 120.141 118.545 121.254 121.265C121.454 121.755 121.676 122.389 122.078 122.606C122.684 122.935 122.14 123.96 123.181 124C124.038 124.032 123.49 124.906 123.644 125.382C123.835 125.971 124.095 126.548 124.198 127.152C124.292 127.705 124.218 128.288 124.218 128.863C122.014 130.753 120.597 133.161 119.511 135.843C117.749 136.13 115.96 136.421 114.282 136.695Z" fill="#FFD44B"/>
<path fill-rule="evenodd" clip-rule="evenodd" d="M42.6206 25.6023C41.3967 26.4337 40.218 27.2672 38.9898 28.0175C38.8709 28.0901 38.4436 27.6576 37.9827 27.3356C37.7006 27.8418 37.5091 28.3059 37.2102 28.6847C36.8587 29.132 36.4073 29.5003 36.0084 29.9118C35.2002 30.7443 34.4214 31.6714 33.2269 30.4065C33.1354 30.3107 32.8575 30.4054 32.6691 30.3854C31.3273 30.2402 30.0487 30.5748 28.6985 29.4951C27.6113 28.6258 26.2274 28.0249 25.2056 26.9577C24.2479 25.9559 23.2565 25.015 22.5882 23.7437C21.5632 21.7915 20.5508 19.8614 20.916 17.5704C21.0075 16.9958 21.4022 16.4685 21.759 15.6992C22.4809 16.2907 22.9692 16.6906 23.5396 17.1589C24.0069 15.6087 23.9111 13.807 25.3476 12.441C25.9107 12.862 26.4547 13.2682 27.1335 13.7754V11.6822C29.0194 11.3602 30.7327 10.7119 32.6228 10.8256C33.7068 10.8908 34.6434 11.2339 35.3296 11.8916C36.2115 12.7357 37.2913 13.3397 38.0111 14.4216C38.6615 15.4003 39.5508 16.2191 40.2338 17.2273C41.3546 18.8848 41.7334 20.8223 42.5532 22.5861C42.9447 23.427 42.6206 24.6014 42.6206 25.6023Z" fill="#FFD44B"/>
<path fill-rule="evenodd" clip-rule="evenodd" d="M157.973 81.4065C158.049 80.8772 158.125 80.3467 158.209 79.7637C158.417 79.9153 158.602 79.9753 158.651 80.0921C159.386 81.8917 160.303 83.6165 160.736 85.5414C161.007 86.7516 161.353 87.9103 160.182 88.8533C159.384 89.4952 160.194 91.339 158.399 91.2359C157.553 92.5945 156.198 92.4588 154.901 92.3662C154.608 93.2754 154.426 94.1616 154.044 94.9519C153.614 95.8422 152.238 96.0938 150.764 95.6728C150.427 95.577 150.102 95.2497 149.794 95.2771C147.405 95.4855 147.409 95.5034 146.404 93.6196C145.902 92.6798 145.296 91.7821 144.906 90.7981C144.433 89.5984 143.696 88.8491 142.485 88.3313C140.686 87.562 139.518 86.0023 139.208 84.147C138.927 82.4673 139.713 80.9266 141.213 79.7164C141.955 80.6867 142.696 81.6538 143.735 83.0093C143.735 81.6223 143.72 80.6888 143.739 79.7564C143.758 78.8292 143.859 79.0186 145.326 78.3577C146.375 77.8852 147.893 78.4577 148.496 77.0033C149.532 76.9633 150.566 76.9254 151.602 76.8854C153.514 76.8096 155.21 77.018 156.102 79.1439C156.455 79.9858 157.303 80.6214 157.973 81.4065Z" fill="#FFD44B"/>
<path fill-rule="evenodd" clip-rule="evenodd" d="M86.2876 227.336C84.8026 227.294 83.3977 226.893 82.68 228.539C81.4676 226.942 81.3245 225.808 82.5589 224.539C83.4114 223.664 83.9734 222.57 85.0594 221.814C86.0097 221.15 86.3591 219.685 87.1779 218.751C87.8072 218.033 88.7523 217.591 89.5574 217.028C89.8089 217.273 90.0804 217.541 90.5087 217.961C90.0541 218.284 89.6079 218.602 89.1606 218.918C89.2101 219.033 89.2606 219.148 89.3101 219.262C89.9646 219.159 90.6182 219.056 91.3538 218.94C91.5495 219.234 91.7769 219.988 92.2641 220.241C95.1908 221.765 97.0588 224.309 98.8374 226.92C99.4215 227.776 99.6225 228.885 100.092 229.833C101.251 232.176 101.549 232.609 101.197 234.739C100.942 236.279 100.661 237.92 99.452 239.175C98.9742 239.67 98.4648 240.384 98.4396 241.018C98.3764 242.617 97.4977 242.873 96.2053 242.791C95.8444 242.768 95.4624 242.814 95.1109 242.909C92.8566 243.515 92.624 243.452 91.5001 241.724C89.8352 239.165 89.0396 236.24 88.0714 233.396C87.3873 231.387 86.8653 229.321 86.2876 227.336Z" fill="#FFD44B"/>
<path fill-rule="evenodd" clip-rule="evenodd" d="M49.7905 195.849C48.1961 194.944 46.5817 194.151 45.282 192.841C42.8604 190.395 40.261 188.104 38.0268 185.499C35.6778 182.759 33.191 180.059 31.7734 176.847C31.9229 175.579 33.5751 176.926 33.6067 175.429C33.6162 175.002 34.6633 174.589 35.2442 174.184C36.686 173.178 37.4911 173.01 38.5414 174.127C39.578 175.231 40.7767 175.627 42.1332 175.914C44.2285 176.359 45.6745 177.968 47.4678 178.958C49.3863 180.017 50.7534 181.722 52.312 183.202C53.1192 183.968 54.1221 184.557 54.8156 185.405C55.5134 186.258 56.1543 187.284 56.4016 188.334C56.551 188.973 56.0712 189.937 55.5828 190.506C54.9798 191.208 54.6946 192.221 53.6391 192.561C53.0287 192.757 53.115 193.439 52.9961 194.001C52.8592 194.646 52.6793 195.431 51.5595 194.621C50.7766 194.056 50.1178 194.858 49.7905 195.849Z" fill="#FFD44B"/>
<path fill-rule="evenodd" clip-rule="evenodd" d="M165.337 179.249C162.066 177.902 160.66 175.397 159.262 172.963C158.034 170.823 156.915 168.595 156.001 166.304C155.091 164.017 153.503 161.849 154.211 158.969C156.28 160.411 156.108 163.167 158.095 165.01C157.731 162.095 156.219 159.843 155.464 156.772C156.508 157.344 156.887 157.552 157.35 157.805C157.44 157.305 157.533 156.781 157.626 156.259C158.491 156.095 159.345 155.933 160.353 155.742C160.62 156.169 160.971 156.8 161.387 157.385C163.012 159.662 163.022 159.651 165.973 160.7C166.302 160.818 166.61 161.01 166.909 161.199C169.195 162.643 171.276 164.27 172.533 166.78C172.998 167.708 173.632 169.413 173.603 170.401C173.597 170.633 173.791 170.904 173.959 171.1C174.389 171.598 174.195 172.022 173.751 172.274C172.462 173.001 171.903 174.432 170.758 175.289C170.269 175.654 170.182 176.14 170.094 176.743C169.972 177.564 168.362 178.628 167.612 178.455C167.148 178.348 166.848 177.496 166.216 178.124C165.884 178.454 165.632 178.865 165.337 179.249Z" fill="#FFD44B"/>
<path fill-rule="evenodd" clip-rule="evenodd" d="M72.3937 112.363C71.8928 112.446 71.3676 112.533 70.6425 112.653C70.9288 113.189 71.1329 113.57 71.3466 113.97C69.9837 115.333 68.5651 116.752 67.1023 118.216C66.8665 118.216 66.5782 118.173 66.3067 118.222C63.0874 118.818 60.9436 116.991 59.1556 114.788C57.7591 113.067 56.5583 111.172 55.6238 109.104C55.0408 107.813 54.5198 106.624 54.9366 104.869C55.9132 107.016 56.7835 108.927 57.6539 110.839C57.8086 110.789 57.9633 110.739 58.119 110.689C58.0485 110.325 58.038 109.934 57.897 109.6C57.315 108.217 56.653 106.866 56.1047 105.471C55.8616 104.853 55.3407 104.084 56.6678 103.797C57.0771 103.708 57.3171 102.825 57.6296 102.302C57.9033 101.844 58.1685 101.379 58.3853 101.009C59.7271 100.886 59.7397 102.059 60.5764 102.543C60.3817 101.805 60.187 101.066 59.9302 100.093C60.3596 99.7535 60.9331 99.2989 61.5067 98.8432C61.8687 99.2031 62.3486 99.7766 62.7938 98.719C63.2768 97.5761 63.9903 97.1309 65.1469 97.8813C65.2522 97.9497 65.47 98.0023 65.5395 97.9455C66.8792 96.8415 67.6685 97.9413 68.2883 98.7853C69.768 100.803 70.4647 103.225 71.3508 105.53C71.5592 106.071 72.0127 107.341 70.4868 107.402C70.4005 107.405 70.3342 107.88 70.2595 108.135C70.5773 108.212 71.0656 108.458 71.1866 108.336C72.0422 107.478 72.5032 108.598 72.419 108.795C71.9043 110.004 73.0967 111.172 72.3937 112.363Z" fill="#FFD44B"/>
<path fill-rule="evenodd" clip-rule="evenodd" d="M62.0001 51.1188C62.3368 51.4555 62.6746 51.7933 63.1872 52.3048C63.2808 51.4934 63.3587 50.8241 63.444 50.0937C64.6247 49.8464 65.8424 49.5349 67.0789 49.3518C67.8261 49.2413 68.6154 49.2444 69.3605 49.3591C69.9288 49.4476 69.4826 50.5063 70.5424 50.5989C71.2275 50.6589 71.7537 51.8228 72.2409 52.6332C72.6366 53.2909 72.0441 54.7148 73.547 54.6295C73.5985 55.5609 73.6501 56.4933 73.7038 57.4247C73.708 57.5152 73.729 57.6047 73.7427 57.6952L78.007 61.9595C78.4637 61.9595 78.9478 61.9006 79.4099 61.9732C80.1223 62.0879 80.8895 62.794 80.5243 63.2318C79.7119 64.2053 81.1684 64.8778 80.5906 65.6723C78.3711 66.3375 77.6713 66.4111 75.8654 66.0954C76.3179 67.0731 76.7115 67.9255 77.2061 68.9969C76.9178 69.2736 76.5379 69.9482 76.1632 69.9461C73.7985 69.9282 71.3096 70.5281 69.2016 68.8495C68.6302 68.3938 67.9398 68.0371 67.4957 67.4804C66.4822 66.2112 65.5751 64.8567 64.65 63.5181C64.1943 62.8582 63.8049 62.151 63.3671 61.4775C62.6894 60.4346 62.8904 58.9317 61.6475 58.1856C61.8359 56.9206 61.1224 55.964 60.6667 54.8727C60.0468 53.3898 60.4309 51.9712 62.0001 51.1188Z" fill="#FFD44B"/>
<path fill-rule="evenodd" clip-rule="evenodd" d="M22.6133 114.412C22.6133 114.126 22.5449 113.73 22.6375 113.374C22.6996 113.136 23.1069 112.974 23.1427 112.746C23.1816 112.496 22.889 112.21 22.8859 111.938C22.8838 111.697 23.2226 111.402 23.1563 111.224C23.0353 110.897 22.7638 110.593 22.4849 110.366C22.2997 110.215 21.9913 110.212 21.6104 110.109C21.7893 110.731 21.9335 111.232 22.0787 111.734C21.0652 111.116 19.9392 110.624 20.4348 109.135C20.8537 109.314 21.2652 109.492 21.7756 109.71C21.9398 107.918 20.278 108.851 19.6382 108.002C20.5748 108.113 21.1989 107.468 22.1408 107.593C22.5775 107.651 23.1458 106.723 23.8151 106.089C24.7444 106.848 25.7863 107.697 27.005 108.692C27.1239 107.965 27.2091 107.447 27.3123 106.816C28.6898 106.55 30.1022 106.278 31.5303 106.002C32.2638 106.938 32.8373 107.793 33.5361 108.529C34.1423 109.164 34.9758 109.588 35.5599 110.24C37.2079 112.079 37.9551 114.402 38.6329 116.699C38.876 117.521 39.1433 118.822 37.5721 119.042C37.5794 120.551 35.9882 120.776 35.2705 121.733C34.3707 122.931 32.7795 123.137 31.0619 122.443C28.4899 121.405 26.7997 119.397 25.1569 117.441C24.335 116.462 23.4121 115.538 22.6133 114.412Z" fill="#FFD44B"/>
<path fill-rule="evenodd" clip-rule="evenodd" d="M69.9123 151.631C70.3753 151.789 70.8226 151.941 71.3351 152.115C71.4393 149.701 68.9441 149.025 68.5968 146.802C69.1019 147.025 69.5134 147.12 69.8112 147.357C70.289 147.737 70.6911 148.211 71.2867 148.807C71.0836 147.596 70.9489 147.319 70.2585 146.49C71.7677 144.666 71.7677 144.666 73.5494 144.659C74.5291 145.763 75.3658 147.218 76.6213 147.984C78.0073 148.831 78.4156 150.277 79.4375 151.314C80.4141 152.306 81.0624 153.657 81.7096 154.925C82.0653 155.62 82.3674 156.507 82.2516 157.237C82.1043 158.16 81.7107 159.517 81.0582 159.779C79.9848 160.212 80.2247 160.97 79.8869 161.623C79.4238 162.514 78.7903 163.381 77.6284 163.573C76.9497 163.684 76.1414 164.202 75.6436 163.978C74.4323 163.432 73.181 162.736 72.2854 161.782C70.5953 159.98 69.084 157.998 67.6381 155.99C67.275 155.487 67.4423 154.603 67.335 153.609C67.817 153.998 68.0085 154.152 68.4147 154.479C68.2042 153.015 69.484 152.513 69.9123 151.631Z" fill="#FFD44B"/>
<path fill-rule="evenodd" clip-rule="evenodd" d="M54.8235 256.894C54.0394 256.463 53.6616 256.256 53.2954 256.054C52.6503 258.385 52.4903 258.506 50.5844 257.666C51.0875 258.837 51.4905 259.774 51.9294 260.793C51.4316 261.081 50.9223 261.378 50.4076 261.677C49.4773 260.747 48.5333 259.803 47.502 258.771C46.8811 260.17 48.5901 260.816 48.4218 262.166C46.8884 262.38 45.9991 261.337 45.1162 260.377C44.6342 259.853 44.3732 259.121 43.8765 258.616C41.6622 256.368 39.6732 253.938 37.8189 251.392C37.6526 251.163 37.4221 250.98 37.2159 250.782C36.0982 249.716 34.9269 248.686 34.8438 246.948C35.9593 246.265 36.5518 247.318 37.3106 247.969C38.082 246.693 36.2971 246.522 36.3771 245.581C36.4455 244.447 38.604 245.894 38.0557 244.04H41.1634C42.0527 244.666 42.9546 245.286 43.8386 245.929C44.7257 246.574 45.3119 247.501 46.398 248.026C47.4525 248.538 48.1513 249.744 49.0795 250.561C49.6846 251.095 50.0688 251.828 51.0359 252.068C51.7358 252.241 52.1094 253.303 53.1723 253.166C53.468 253.127 54.0016 253.662 54.1521 254.042C54.4394 254.766 54.5278 255.567 54.8235 256.894Z" fill="#FFD44B"/>
<path fill-rule="evenodd" clip-rule="evenodd" d="M35.1026 64.9376C36.0898 65.0029 36.7717 64.4924 37.6747 65.1439C37.2158 65.3017 36.8833 65.4164 36.5202 65.5417C36.8591 66.6919 37.2358 67.8349 37.5126 69.0009C37.5831 69.2998 37.4263 69.8902 37.219 69.9775C36.0677 70.4637 35.7193 71.7024 34.8227 72.3812C34.4259 72.6822 33.8313 72.7801 33.3125 72.839C33.0525 72.8674 32.7463 72.4749 32.4864 72.5022C32.1696 72.5359 31.8791 72.8127 31.5455 73.0021C31.053 71.2615 31.0783 71.1909 29.1387 70.53C27.9779 70.1343 27.7369 68.9935 26.9139 68.2758C26.7298 68.6683 26.5519 69.0472 26.353 69.4724C26.0636 69.1693 25.5763 68.8936 25.5774 68.6199C25.5921 65.2007 25.589 65.1239 24.0283 63.0749C23.1484 64.6208 24.8344 65.5154 24.9259 67.0277C24.5081 66.9624 23.8841 67.0108 23.8115 66.833C23.0779 65.0502 21.9603 63.3664 23.1064 61.2279C23.4621 60.5638 23.5263 60.2155 24.325 60.2018C24.8175 60.1945 25.3469 59.905 25.7858 59.6272C26.9234 58.9084 28.0189 58.1254 29.2345 57.2972C29.5123 57.7119 29.7691 58.096 29.707 58.0023C30.6657 58.6706 31.6655 56.871 31.8255 58.7474C31.8718 59.2799 33.062 58.0097 33.062 59.4041C33.062 59.9429 34.0523 60.4828 34.5501 60.9806C34.3723 61.4415 34.2039 61.8814 34.0344 62.3213C34.1755 62.4192 34.3165 62.5171 34.4585 62.615C34.708 62.1403 34.9574 61.6657 35.272 61.069C35.7846 61.9404 36.0824 62.4445 36.4728 63.1064C36.0487 63.6726 35.5762 64.3051 35.1026 64.9376Z" fill="#FFD44B"/>
<path fill-rule="evenodd" clip-rule="evenodd" d="M2.19956 185.377C2.60999 186.327 2.90887 187.018 3.33615 188.004C3.60766 187.285 3.7329 186.956 3.8655 186.607C3.99389 186.685 4.20437 186.74 4.23173 186.843C4.49062 187.827 4.95789 188.668 5.66825 189.415C6.09342 189.863 6.40072 190.438 6.69013 190.993C7.20054 191.975 7.92459 192.645 9.09696 192.854C9.28113 192.481 9.47056 192.096 9.55896 191.917C10.102 192.323 10.6924 192.766 11.1323 193.096C11.1323 193.453 11.1702 193.607 11.127 193.636C10.6072 193.973 10.0757 194.292 9.59054 194.589C9.73156 195.373 9.85784 196.083 10.0483 197.147C9.18852 196.73 8.7181 196.5 8.04036 196.17C7.66465 196.925 7.28789 197.685 6.88272 198.502C6.49754 198.545 6.04607 198.598 5.49356 198.66V199.935C4.05177 201.015 2.87204 200.87 1.62179 199.73C0.259993 198.488 -1.27545 197.439 -2.66462 195.96C-2.08054 195.574 -1.51645 195.201 -0.897643 194.793C-1.21336 193.636 -1.7806 192.602 -2.59832 191.592C-3.41603 190.58 -3.86435 189.269 -4.45264 188.13C-3.61177 187.094 -2.94771 187.861 -2.1763 188.185C-2.14368 187.896 -2.01003 187.587 -2.10158 187.379C-2.67724 186.085 -2.42783 185.445 -1.2081 185.389C-0.0630927 185.335 1.08612 185.377 2.19956 185.377Z" fill="#FFD44B"/>
<path fill-rule="evenodd" clip-rule="evenodd" d="M12.555 145.091C13.2686 145.301 14.0137 145.519 14.9293 145.787C15.3176 144.862 15.4323 143.974 14.6135 143.148C15.6196 142.233 16.2889 143.612 17.275 143.462C17.3666 142.964 17.4645 142.44 17.5592 141.927C18.3316 141.1 19.0283 142.626 19.9618 141.906C20.9163 141.169 21.1573 142.759 21.9687 142.941C22.4244 143.043 22.8506 143.518 23.1758 143.918C24.2535 145.24 24.4219 147.11 25.8731 148.264C26.2204 148.54 26.0352 149.488 26.1131 150.331C24.5039 149.541 24.4061 152.094 22.8559 151.489C22.3792 152.26 22.8296 153.659 21.0858 153.826C20.9016 153.513 20.6132 153.021 20.2028 152.32C19.8534 153.05 19.684 153.403 19.5103 153.767C18.5337 153.999 18.0864 153.157 17.7655 152.621C16.6994 150.837 15.3186 149.472 13.5327 148.405C12.434 147.749 11.831 146.678 12.555 145.091Z" fill="#FFD44B"/>
</svg>
