<svg width="579" height="162" viewBox="0 0 579 162" fill="none" xmlns="http://www.w3.org/2000/svg">
<path fill-rule="evenodd" clip-rule="evenodd" d="M63.1792 45.9917C63.2918 46.1605 63.4044 46.3293 63.517 46.4981C64.6177 46.1891 65.7184 45.8801 66.8192 45.571C66.6865 45.3709 66.5528 45.1708 66.4211 44.9706C65.3395 45.311 64.2598 45.6513 63.1792 45.9917ZM327.192 9.77915C327.172 9.58107 327.153 9.38231 327.133 9.18355C325.769 9.18355 324.404 9.17334 323.041 9.20125C322.928 9.20329 322.723 9.46535 322.744 9.59264C322.769 9.75397 322.996 10.0385 323.114 10.033C324.476 9.97451 325.833 9.87104 327.192 9.77915ZM311.203 -13.7345C311.22 -13.5861 311.238 -13.4378 311.254 -13.2894C313.152 -13.3894 315.05 -13.4908 316.947 -13.5909C316.925 -13.7733 316.902 -13.9551 316.881 -14.1375L311.203 -13.7345ZM472.895 118.427L472.862 118.309C470.957 118.185 469.053 118.056 467.146 117.936C466.843 117.917 466.525 117.91 466.233 117.953C466.138 117.966 466.099 118.157 466.036 118.266C466.349 118.32 466.662 118.418 466.976 118.42C468.948 118.435 470.921 118.427 472.895 118.427ZM263.192 35.0898C263.214 35.2205 263.237 35.3512 263.258 35.4826C265.543 35.3192 267.826 35.1565 270.11 34.9931C270.088 34.8577 270.066 34.7209 270.044 34.5847C267.76 34.7529 265.476 34.9217 263.192 35.0898ZM88.1629 -7.23736C88.0403 -7.42182 87.9176 -7.60561 87.794 -7.79008C86.0368 -7.15295 84.2796 -6.51719 82.5215 -5.88007C82.6833 -5.67927 82.8452 -5.47846 83.008 -5.27834C84.727 -5.93112 86.4459 -6.58458 88.1629 -7.23736ZM291.335 -58.6783C291.463 -58.4755 291.591 -58.2719 291.719 -58.0691C293.076 -58.2617 294.446 -58.423 295.781 -58.6729C296.056 -58.7246 296.278 -59.0935 296.354 -59.3406C296.378 -59.4196 295.791 -59.717 295.592 -59.6755C294.158 -59.378 292.751 -59.0186 291.335 -58.6783ZM382.264 90.96C382.229 90.7783 382.194 90.5965 382.157 90.4155C378.846 90.6482 375.534 90.8817 372.223 91.1152C372.244 91.2711 372.265 91.427 372.286 91.5828C375.613 91.3752 378.938 91.1676 382.264 90.96ZM439.771 82.7489C439.768 82.951 439.764 83.1532 439.761 83.3553L447.521 83.6623C447.53 83.4438 447.537 83.226 447.546 83.0082C444.955 82.9218 442.362 82.8353 439.771 82.7489ZM396.643 39.5626C396.591 39.3863 396.541 39.21 396.49 39.0337C393.719 39.2182 390.95 39.402 388.18 39.5871C388.228 39.8152 388.274 40.0439 388.321 40.2719C391.095 40.035 393.869 39.7988 396.643 39.5626ZM318.757 -60.2378L318.769 -60.7109C316.702 -60.5958 314.63 -60.5094 312.572 -60.3351C312.273 -60.3099 312.052 -59.8668 311.795 -59.6163C312.16 -59.5339 312.553 -59.3447 312.882 -59.3869C314.848 -59.6415 316.8 -59.9492 318.757 -60.2378ZM287.378 -20.0445C287.339 -20.1602 287.3 -20.2759 287.262 -20.3903C283.838 -19.9193 280.414 -19.4475 276.989 -18.9751C277.056 -18.7777 277.121 -18.5803 277.188 -18.3829C280.584 -18.937 283.981 -19.4904 287.378 -20.0445ZM119.224 -6.66217C119.093 -6.80988 118.961 -6.95759 118.829 -7.10461L104.982 -3.71275C105.073 -3.54394 105.163 -3.37649 105.253 -3.20904C109.91 -4.36076 114.567 -5.5118 119.224 -6.66217ZM201.72 106.795C201.007 105.595 198.58 104.781 197.315 105.174C196.935 105.293 196.427 105.213 195.981 105.25C195.385 105.298 194.792 105.371 194.197 105.433C194.632 105.733 195.013 106.236 195.511 106.295C197.487 106.531 199.5 106.629 201.72 106.795ZM338.13 36.5322C338.113 36.6684 338.096 36.8038 338.08 36.94H350.948C350.94 36.8038 350.931 36.6684 350.922 36.5322H338.13ZM397.926 100.234C397.924 100.3 397.922 100.365 397.921 100.43H422.832C422.832 100.365 422.833 100.3 422.835 100.234H397.926ZM322.706 -61.043L322.741 -60.2473C326.025 -60.103 329.307 -59.9383 332.596 -59.8423C332.95 -59.8321 333.332 -60.2167 333.701 -60.4181C333.397 -60.6571 333.094 -61.1002 332.785 -61.1022C329.425 -61.122 326.067 -61.073 322.706 -61.043ZM486.233 159.855C486.22 159.94 486.207 160.025 486.195 160.109C494.02 159.396 501.848 158.701 509.664 157.944C510.509 157.863 511.277 157.424 512.08 157.151C511.37 157.28 510.661 157.411 509.951 157.539C509.864 157.554 509.769 157.546 509.678 157.554C501.862 158.32 494.048 159.087 486.233 159.855ZM85.5476 23.3779C81.8765 23.077 72.0663 25.9904 71.418 27.4729C76.0561 26.1286 80.4842 24.8461 85.5476 23.3779ZM77.0553 18.1686C75.0951 18.4641 75.4841 21.1773 72.3759 19.8853C72.2332 20.1025 72.0975 20.321 71.9437 20.5347C71.8673 20.6402 71.7878 20.7661 71.6552 20.8281C71.3868 20.9527 70.8168 21.0847 70.8339 21.133C70.9364 21.4026 71.1163 21.8273 71.3817 21.8689C72.3126 22.0132 73.3781 22.2235 74.2306 22.0472C77.2041 21.4319 77.571 20.8213 77.0553 18.1686ZM501.783 58.7192C501.724 58.4184 501.663 58.1161 501.604 57.8153C494.961 58.2931 488.318 58.7716 481.675 59.2502C481.691 59.3849 481.706 59.5197 481.722 59.6538C488.409 59.3427 495.096 59.031 501.783 58.7192ZM345.733 29.9711C345.744 29.7485 345.756 29.5259 345.767 29.3026C335.742 29.0807 325.716 28.8595 315.691 28.6383C325.708 29.0317 335.683 30.2052 345.733 29.9711ZM311.059 2.15882C311.053 2.32695 311.047 2.49372 311.041 2.66117C311.751 2.70133 312.458 2.75647 313.169 2.77961C318.065 2.93208 322.958 3.11111 327.856 3.19823C328.736 3.21321 330.35 2.89669 330.394 2.63734C330.579 1.55437 329.467 1.1868 327.93 1.2712C322.308 1.58024 316.683 1.86477 311.059 2.15882ZM32.562 3.00832C32.8616 3.14106 33.1601 3.27311 33.4597 3.40585L50.0924 -14.7256C48.3121 -13.5521 46.763 -12.2234 45.1536 -10.9294C44.7133 -10.5748 44.3434 -9.37951 43.3774 -10.7048C43.1231 -10.5993 42.7662 -10.5326 42.6395 -10.3788C42.4717 -10.1752 42.4114 -9.69398 42.4284 -9.69127C44.3454 -9.38904 42.9662 -8.81794 42.6184 -8.41974C39.284 -4.60245 35.9185 -0.798759 32.562 3.00832ZM473.446 89.246C473.444 89.1058 473.442 88.9662 473.439 88.826L430.7 89.6517C430.72 89.9492 430.739 90.2466 430.757 90.5441C444.986 90.1112 459.217 89.6789 473.446 89.246ZM474.296 -21.2609C474.335 -21.3957 474.374 -21.5304 474.412 -21.6659C472.437 -22.8394 469.954 -23.7944 468.604 -25.2368C466.401 -27.5926 463.354 -29.2365 460.292 -30.9348C460.071 -31.056 459.64 -31.0029 459.306 -31.0308C459.321 -30.7667 459.182 -30.4236 459.376 -30.2487C463.072 -26.9106 466.102 -23.1015 472.446 -21.6006C473.047 -21.4576 473.678 -21.3725 474.296 -21.2609ZM513.828 65.5445C499.093 66.7364 485.199 67.8595 471.305 68.9833C485.432 69.0405 499.433 68.4122 513.828 65.5445ZM418.223 61.7081C418.815 61.6326 419.27 61.6135 419.683 61.5135C420.33 61.3549 420.948 61.1432 421.578 60.9532C420.936 60.6946 420.315 60.2426 419.647 60.2065C411.42 59.7648 403.186 59.3761 394.952 59.0119C394.527 58.9935 393.798 59.2624 393.701 59.4932C393.597 59.7369 394.021 60.3297 394.318 60.3638C396.276 60.5884 398.257 60.7695 400.242 60.8375C402.439 60.9131 404.66 60.7538 406.849 60.8736C410.703 61.0853 414.541 61.4311 418.223 61.7081ZM475.896 61.0676C475.025 60.9621 474.153 60.7606 473.283 60.7647C462.88 60.8089 452.477 60.8702 442.075 60.9784C441.364 60.9852 440.663 61.393 439.956 61.6142C440.638 61.8184 441.304 62.1723 442.003 62.2037C453.316 62.7094 464.575 62.2275 475.896 61.0676ZM272.941 9.8132C272.989 10.1406 273.037 10.468 273.084 10.7954C277.252 10.5749 281.419 10.3387 285.588 10.1413C287.484 10.0514 289.389 9.97385 291.285 10.0099C293.83 10.0576 296.381 10.372 298.913 10.3019C303.353 10.1801 307.775 9.76488 312.215 9.64848C314.353 9.59198 316.51 9.98202 318.667 10.0664C319.183 10.0868 319.734 9.69544 320.269 9.49328C320.026 9.28703 319.822 8.9358 319.532 8.89904C317.813 8.68394 316.078 8.42596 314.342 8.40146C311.536 8.36198 308.724 8.52058 305.912 8.541C302.509 8.56754 299.102 8.48314 295.701 8.54508C292.067 8.61247 288.431 8.73772 284.81 8.94396C280.846 9.16995 276.897 9.51778 272.941 9.8132ZM266.264 -6.38718C267.44 -6.27214 268.7 -5.9284 269.824 -6.07202C280.514 -7.43816 291.164 -8.94453 301.86 -10.2882C306.867 -10.9165 311.951 -11.2677 316.991 -11.7796C317.395 -11.8211 317.737 -12.1363 318.109 -12.3241C317.761 -12.4991 317.441 -12.7741 317.058 -12.8251C316.444 -12.9075 315.778 -12.8898 315.151 -12.8292C307.853 -12.124 300.553 -11.4318 293.267 -10.6748C289.262 -10.2583 285.239 -9.84984 281.303 -9.21204C276.314 -8.40269 271.406 -7.36465 266.264 -6.38718ZM117.097 -30.1799C133.239 -31.8769 149.382 -33.5745 165.526 -35.2715C148.774 -36.1509 132.791 -33.776 117.097 -30.1799ZM274.773 0.392494L274.921 1.05072C275.665 1.02757 276.432 1.07454 277.149 0.969032C280.436 0.489151 283.679 -0.169754 286.994 -0.517586C299.5 -1.82859 312.028 -3.03817 324.541 -4.31242C324.952 -4.35394 325.299 -4.68204 325.676 -4.87603C325.268 -5.06049 324.847 -5.41582 324.455 -5.40152C320.123 -5.23884 315.74 -5.25109 311.481 -4.76508C302.279 -3.71478 293.133 -2.43168 283.982 -1.17921C280.883 -0.754463 277.842 -0.137085 274.773 0.392494ZM526.41 71.8456C503.911 75.023 481.053 76.1748 458.194 77.3054C481.287 77.5028 504.162 76.4613 526.41 71.8456ZM280.834 2.9185C282.215 3.03218 282.849 3.20303 283.385 3.10978C288.3 2.25552 293.402 3.37252 298.459 1.90088C302.241 0.800201 306.914 1.07043 311.202 0.82811C312.107 0.777061 313.065 1.1562 313.999 1.33659C314.838 -1.10096 318.17 2.06696 319.644 0.208008C319.949 -0.177261 322.757 0.470749 324.384 0.392471C325.296 0.348228 326.154 -0.209259 327.036 -0.535309C326.443 -0.891304 325.887 -1.51345 325.25 -1.5543C323.389 -1.67205 321.486 -1.63053 319.616 -1.5257C306.778 -0.804855 294.125 0.664749 280.834 2.9185ZM485.664 90.3385C485.652 90.1806 485.639 90.0234 485.627 89.8654C483.14 89.9771 480.657 90.1445 478.168 90.1929C462.374 90.4951 446.577 90.7381 430.786 91.1023C429.019 91.1431 427.284 91.8224 425.534 92.2057C425.63 92.4364 425.728 92.6678 425.825 92.8986C445.877 93.1647 465.805 92.1165 485.664 90.3385ZM363.516 -71.7509C317.532 -70.3596 271.901 -67.157 227.221 -59.0874C272.009 -66.5988 317.704 -69.4802 363.516 -71.7509ZM383.742 -60.1316C383.742 -60.2922 383.743 -60.4522 383.743 -60.6115C381.13 -61.105 378.52 -61.6053 375.9 -62.079C375.684 -62.1171 375.392 -61.9116 375.14 -61.915C371.713 -61.9728 368.287 -62.045 364.86 -62.1205C363.729 -62.1457 362.6 -62.1859 361.47 -62.2315C359.408 -62.3159 357.34 -62.5174 355.284 -62.4738C352.622 -62.4173 349.967 -62.1832 347.312 -61.998C345.006 -61.8381 342.698 -61.6761 340.406 -61.4433C339.281 -61.3296 338.176 -61.0825 337.092 -60.8368C336.746 -60.7592 336.236 -60.4767 336.256 -60.316C336.287 -60.0887 336.692 -59.7599 337.024 -59.7007C337.624 -59.5952 338.289 -59.6422 338.925 -59.651C342.772 -59.7082 346.618 -59.8062 350.465 -59.8232C352.943 -59.8348 355.422 -59.6816 357.9 -59.6919C361.496 -59.7061 365.09 -59.7994 368.685 -59.8627C373.703 -59.9505 378.722 -60.0417 383.742 -60.1316ZM435.757 115.378C435.747 115.467 435.737 115.555 435.727 115.644C437.774 115.909 439.805 116.327 441.866 116.412C451.916 116.828 461.927 116.252 471.946 115.794C475.759 115.619 479.609 115.85 483.436 115.769C485.752 115.72 488.67 115.937 490.185 115.097C491.58 114.325 492.778 114.203 494.162 114.141C495.463 114.084 496.825 114.497 498.098 114.386C499.615 114.253 501.068 113.785 502.547 113.457C502.927 113.374 503.299 113.275 503.674 113.182C503.31 112.946 502.949 112.513 502.576 112.509C501.043 112.492 499.504 112.585 497.97 112.672C487.71 113.254 477.462 113.956 467.189 114.403C456.724 114.858 446.236 115.064 435.757 115.378ZM438.403 81.2337C449.426 83.2192 503.027 81.3378 516.374 76.6186C515.406 76.6928 514.786 76.7336 514.168 76.7867C501.874 77.8472 489.612 79.1426 477.276 79.9002C465.858 80.6027 454.387 81.3433 442.874 80.5176C441.654 80.4305 440.346 80.9056 438.403 81.2337ZM395.196 101.982C424.56 103.739 457.785 103.47 489.255 100.568C457.704 101.042 424.488 101.541 395.196 101.982ZM497.612 108.953C482.813 109.554 468.246 110.379 453.655 110.673C438.951 110.969 424.224 110.738 409.506 110.738C409.507 110.918 409.509 111.097 409.511 111.277C417.31 113.816 486.893 112.01 497.612 108.953ZM450.66 -37.208C451.828 -36.5804 452.995 -35.9521 454.603 -35.087C453.858 -36.4797 453.362 -37.404 452.93 -38.2127C452.163 -37.8696 451.377 -37.5191 450.591 -37.1672C451.575 -38.9472 451.075 -39.9233 447.58 -40.4481C448.657 -39.2984 449.642 -38.2454 450.66 -37.208ZM186.794 110.947C186.052 110.895 185.313 110.844 184.573 110.79C183.865 110.738 183.157 110.643 182.448 110.643C181.879 110.643 180.843 110.704 180.813 110.829C180.518 112.029 180.211 112.763 177.881 112.114C176.862 111.83 175.24 112.351 173.991 112.681C172.311 113.122 172.178 112.654 172.296 111.705C172.332 111.411 171.807 111.084 171.539 110.772C171.328 110.978 171.184 111.274 170.893 111.372C169.624 111.8 168.304 112.511 167.013 112.5C162.147 112.458 157.277 111.962 152.422 112.033C145.136 112.139 137.865 112.777 130.581 112.836C116.007 112.953 101.487 115.107 86.8785 113.48C80.9517 112.82 74.877 112.329 69.2416 111.025C63.7992 109.764 58.756 107.653 53.6855 105.736C45.5119 102.648 37.5776 99.295 31.0335 94.6718C22.3241 88.5184 14.3877 82.009 10.038 73.8285C8.28286 70.5258 6.05023 67.3313 4.53131 63.9843C3.47581 61.6598 2.52184 59.1106 2.84954 56.7466C3.40846 52.7074 2.14588 48.8847 1.23312 45.0095C-1.76049 32.2949 0.818959 20.0548 7.64152 8.12643C11.7308 0.975136 16.6294 -5.89777 22.499 -12.4562C30.3619 -21.2418 40.0575 -28.9669 51.862 -35.4219C58.0493 -38.8056 64.3722 -42.0498 71.9015 -44.1034C80.0409 -46.3238 87.8305 -49.1609 96.0594 -51.1996C109.586 -54.552 123.413 -57.4006 138.001 -57.4551C148.587 -57.4939 159.174 -57.0399 169.765 -56.8976C175.864 -56.8152 181.968 -56.9555 188.069 -56.9269C200.918 -56.8677 213.141 -59.3624 225.383 -61.4235C251.464 -65.8133 277.763 -69.1867 304.528 -70.8592C320.704 -71.87 336.848 -73.2954 353.056 -73.8501C374.928 -74.5982 396.307 -72.646 416.087 -65.7207C426.542 -62.0599 435.486 -56.98 443.793 -51.35C451.306 -46.2591 459.345 -41.5093 466.547 -36.2306C471.976 -32.2499 478.459 -29.2835 484.741 -26.1081C489.145 -23.8822 493.915 -21.9776 498.62 -20.0377C510.645 -15.0775 524.219 -12.7557 537.34 -9.63815C547.284 -7.27547 557.037 -4.54184 566.846 -1.92459C567.417 -1.77212 567.719 -1.16631 568.17 -0.785126C568.288 -0.685059 568.496 -0.570702 568.661 -0.571381C571.191 -0.579552 572.98 0.240669 574.74 1.44685C575.903 2.24461 578.005 2.3828 579.329 3.1125C585.389 6.44854 591.751 9.60762 597.174 13.3779C601.885 16.6541 605.874 20.5007 609.464 24.3983C613.112 28.3619 616.259 32.5897 618.931 36.8984C621.641 41.2691 623.718 45.8372 625.686 50.3958C629.588 59.4353 630.812 68.7321 629.484 78.063C628.128 87.5851 624.116 96.7207 618.197 105.42C615.858 108.859 613.167 112.2 610.371 115.482C608.897 117.214 606.79 118.695 605.086 120.343C603.911 121.481 603.038 122.762 601.854 123.895C595.111 130.349 586.491 135.504 577.169 140.173C575.501 141.009 573.954 141.954 572.328 142.83C571.831 143.098 571.281 143.336 570.71 143.523C565.62 145.192 560.504 146.824 555.441 148.528C554.674 148.786 554.241 149.567 553.472 149.742C551.003 150.306 548.378 150.603 546.62 152.099C545.312 150.999 544.566 152.475 544.498 152.461C541.191 151.788 540.08 154.203 537.632 154.642C536.667 154.816 535.718 155.273 534.79 155.239C533.769 155.201 532.406 156.803 531.677 155.032C530.816 155.391 529.962 155.758 529.091 156.106C528.063 156.516 527.021 156.909 525.707 156.981C526.158 156.757 526.61 156.533 527.061 156.309C508.751 159.321 490.434 162.05 471.377 160.794C471.397 161.035 471.416 161.276 471.437 161.516C481.552 161.321 491.668 161.127 501.783 160.932C501.8 160.954 501.817 160.977 501.833 160.999C497.713 161.291 493.603 161.69 489.47 161.857C471.066 162.6 453.249 160.405 435.986 156.305C423.69 153.384 411.683 149.906 399.526 146.711C393.268 145.066 386.932 143.553 380.697 141.869C377.958 141.129 375.459 139.979 372.718 139.243C369.011 138.248 365.163 137.497 361.4 136.594C358.247 135.838 354.82 135.32 352.139 134.08C350.986 133.545 350.193 133.602 349.17 133.421C348.56 133.313 348.169 132.693 347.614 132.352C347.347 132.189 346.686 131.999 346.612 132.059C345.304 133.097 344.115 132.355 342.774 132.07C336.795 130.802 330.802 129.562 324.769 128.424C317.232 127.002 309.705 125.534 302.079 124.373C293.513 123.068 284.865 121.982 276.205 120.988C267.749 120.017 259.241 119.242 250.741 118.454C243.773 117.808 236.774 117.318 229.811 116.66C226.997 116.395 224.254 115.799 221.446 115.487C220.279 115.357 218.892 115.834 217.839 115.583C215.138 114.941 212.111 115.531 209.499 114.31C208.584 113.884 206.686 114.555 205.302 114.42C203.846 114.278 202.468 113.768 201.052 113.428C200.84 113.377 200.54 113.307 200.381 113.367C198.127 114.231 196.519 113.777 196.053 112.577C194.602 112.643 193.366 112.739 192.128 112.743C190.984 112.747 189.801 112.505 188.7 112.631C186.263 112.911 186.523 111.974 186.832 110.939C187.276 111.332 187.767 112.093 188.122 112.064C189.399 111.963 190.634 111.607 191.867 111.311C192.015 111.275 192.184 110.938 192.106 110.874C191.9 110.706 191.543 110.488 191.282 110.508C189.78 110.619 188.288 110.793 186.794 110.947Z" fill="#2FBF7D"/>
</svg>
