<svg width="652" height="116" viewBox="0 0 652 116" fill="none" xmlns="http://www.w3.org/2000/svg">
<path fill-rule="evenodd" clip-rule="evenodd" d="M375.769 81.5376C374.192 82.1834 372.88 83.2942 371.835 83.0451C368.36 82.2166 364.972 82.9339 361.571 82.9986C357.399 83.075 353.167 84.2704 349.14 84.1608C343.606 84.0114 338.032 84.2389 332.618 84.5875C327.037 84.9462 321.389 84.375 315.816 85.3596C313.323 85.7979 310.593 84.908 307.964 84.6921C307.683 84.6705 307.371 85.1205 306.994 85.4177C307.147 85.9357 307.312 86.4869 307.52 87.1909C310.866 86.9335 314.253 85.9822 317.357 86.6413C320.144 87.2307 322.663 85.4774 324.814 86.2545C327.4 87.1892 329.651 85.1603 331.672 86.2345C334.049 87.5013 335.918 85.1006 338.012 86.0868C340.521 87.2689 342.751 84.9976 344.955 85.5123C348.051 86.2362 351.108 84.1143 353.551 85.069C356.863 86.364 359.741 82.9538 362.708 85.2749C365.681 83.8288 368.891 84.8 371.973 84.4763C375.456 84.111 379.003 83.1464 382.403 83.593C385.305 83.9749 388.04 82.4823 390.44 83.1431C392.666 83.7574 394.469 82.4308 396.177 83.0136C398.484 83.7989 400.417 82.9588 402.524 82.8127C404.281 82.6898 406.067 82.6533 407.854 82.6898C411.139 82.7596 414.517 83.2726 417.706 81.9377C418.444 81.6289 419.634 81.1225 420.008 81.4562C422.352 83.5349 424.577 80.6975 426.889 81.6422C429.526 82.7164 431.918 80.9847 434.451 80.7091C435.251 80.6228 436.242 79.9503 436.781 80.2608C438.807 81.4164 440.782 79.8906 442.497 80.3505C444.862 80.9814 446.126 79.0106 448.062 78.9176C450.957 78.7732 453.848 78.5225 456.735 78.2618C459.2 78.0394 461.657 77.7339 464.416 77.435C464.483 77.3437 464.806 76.8888 464.99 76.6331C466.551 77.0648 467.945 77.4516 468.996 77.7471C471.173 75.8992 473.304 75.3049 475.741 76.1068C478.427 76.9901 480.069 74.9213 481.972 73.789C484.164 72.484 486.747 75.7415 489.041 72.6683C490.19 71.1292 493.278 71.1708 495.743 70.4253C491.418 68.9991 487.486 69.4374 483.868 70.8985C480.147 72.4077 475.897 70.2709 472.464 72.8709C469.826 71.6456 468.088 73.3739 466.235 74.9379C465.015 74.2307 463.823 73.5367 462.455 72.7414C461.271 73.5782 460.207 74.3319 459.089 75.1222C457.069 74.2473 455.06 73.7691 453.711 76.2612C452.786 75.6502 451.921 75.0774 450.91 74.405C446.414 75.1853 441.949 76.9901 437.076 76.2662C435.015 75.9607 432.847 76.0802 430.787 76.3807C426.919 76.9485 423.138 77.7189 419.168 77.9514C414.931 78.2004 410.445 77.4267 406.298 79.1999C405.626 79.4888 404.524 78.7234 403.571 78.4279C403.151 79.0139 402.864 79.8574 402.458 79.9171C399.224 80.3837 395.971 80.7473 392.714 81.0196C392.218 81.0611 391.659 80.475 391.125 80.1795C390.813 80.6526 390.48 81.1491 389.979 81.9095C388.312 81.4512 386.538 80.9615 384.758 80.4717C384.658 80.6443 384.592 80.9133 384.439 80.9847C381.993 82.1154 379.179 80.7207 376.714 82.0224C376.413 82.1818 375.686 81.4928 375.769 81.5376ZM110.699 87.4881C110.307 86.6944 110.045 86.1648 109.638 85.3396C109.246 85.8161 108.941 86.193 108.599 86.6147C105.263 85.5654 101.891 84.4082 98.4735 83.4585C93.8874 82.1851 89.2802 81.2503 84.7514 79.4572C80.9085 77.9364 76.4049 77.5861 72.9425 75.2501C69.6685 73.0469 65.5097 74.3286 62.7053 71.3401C58.5553 71.6888 55.6696 68.1723 51.9035 67.2591C50.7959 66.9918 49.9213 66.243 48.5605 66.4688C47.1879 66.6913 47.128 66.3476 44.9329 63.7061C44.5039 63.7393 43.9385 63.7659 43.3791 63.8373C42.9814 63.8871 42.3422 64.1992 42.2309 64.0531C39.5406 60.4918 34.773 62.6211 31.8695 59.7191C31.5948 59.4463 31.3244 58.8615 31.0977 58.8795C24.6639 59.4342 19.6206 54.5936 13.5984 53.6663C11.3435 53.317 9.99167 51.2473 7.84598 50.8062C6.92727 50.6151 6.03471 50.2483 5.01761 49.9264C4.55919 49.0086 4.18375 47.8132 3.45676 46.9299C2.72656 46.0426 1.64595 45.4624 0.285522 44.4167C3.12743 42.2198 6.3672 42.7093 8.72121 40.5873C6.51572 40.9759 4.31021 41.3646 1.94624 41.7797C1.70068 41.304 1.43013 40.779 1.16115 40.261C8.10477 36.031 8.14832 35.7411 17.831 37.5192C24.6809 38.78 31.8016 39.0027 38.218 42.4805C43.6211 42.5263 48.4867 45.1046 53.6095 46.4468C60.5941 48.2777 67.4089 50.8463 74.359 52.8362C83.1065 55.3437 91.9055 57.6459 100.708 59.9233C108.947 62.0556 117.282 63.5534 125.664 64.948C131.193 65.8678 136.753 67.1628 142.313 68.169C147.875 69.1734 153.467 69.9853 159.053 70.842C163.148 71.4679 167.281 72.5886 171.35 72.4591C175.653 72.3213 179.432 74.6673 183.645 74.5245C186.303 74.4349 188.99 75.6851 191.644 74.5428C192.01 74.3834 192.508 74.1576 192.814 74.2921C197.909 76.5451 203.3 75.524 208.538 76.1549C213.978 76.8091 219.458 77.0864 224.923 77.3835C227.949 77.5496 230.958 77.3005 233.994 77.9182C237.577 78.6454 241.176 77.6077 244.832 78.0277C249.343 78.5474 253.949 78.5507 258.445 78.4876C262.838 78.4245 267.239 78.4611 271.622 78.6055C280.169 78.8811 288.708 77.9497 297.267 79.0654C299.53 79.3626 301.669 78.3648 304.168 78.7732C307.533 79.3277 311.365 77.2723 314.521 78.212C318.004 79.2464 321.066 76.1516 324.246 78.3448C330.319 76.7742 336.677 78.134 342.796 76.8091C344.614 76.4123 346.595 76.7692 348.498 76.7477C350.602 76.7277 352.707 76.7161 354.804 76.6098C356.712 76.5169 358.583 74.933 360.519 76.6331C363.523 75.4925 366.744 76.1881 369.771 75.7033C373.648 75.084 377.719 76.301 381.43 74.493C384.169 76.5268 387.125 73.1648 389.949 75.0459C390.443 75.3746 391.478 74.7952 392.266 74.6441C394.548 74.2074 396.688 73.5516 399.198 74.2439C401.347 74.8383 403.461 72.7613 406.142 73.9169C407.687 74.5793 409.995 73.2229 411.872 72.7962C412.841 73.4387 413.705 74.0098 414.597 74.6009C417.305 71.5642 420.329 72.4907 423.425 74.0298C424.614 71.5543 427.363 71.2754 429.082 71.8083C431.294 72.4907 433.009 71.8349 434.863 71.4497C440.279 70.324 445.93 70.9848 451.291 69.2033C452.668 68.7451 454.563 69.884 456.171 70.2775C456.828 69.8209 457.538 69.1767 458.362 68.7882C460.664 67.7008 463.272 68.4877 465.749 67.2973C467.801 66.3111 470.704 66.6116 473.083 67.1379C474.392 67.4268 474.601 66.4887 475.177 66.414C478.437 65.9907 481.411 63.565 485.036 65.2203C485.945 65.632 487.366 64.7836 488.549 64.5147C497.038 62.5854 505.523 60.6289 514.023 58.75C515.939 58.3241 517.957 57.7531 519.852 58.0025C521.798 58.2594 522.382 55.843 524.303 56.3328C525.545 56.6512 526.911 56.401 528.439 56.403C529.675 55.8518 531.169 54.9067 532.796 54.506C539.087 52.9617 545.363 51.2194 551.755 50.2505C559.711 49.0459 566.938 45.5509 574.595 43.4139C580.112 41.8753 585.05 38.228 590.656 35.3096C591.847 35.4819 593.655 35.7437 595.601 36.0241C595.768 35.7829 596.099 35.2961 596.501 34.7045C597.888 35.8183 599.271 36.9285 600.889 38.2288C597.742 39.8873 595.097 41.2779 592.002 42.9103C593.141 43.9703 593.851 44.6299 594.706 45.4263L600.814 44.0388C601.762 44.6684 602.454 45.1287 603.679 45.9372C602.559 47.3068 601.445 48.6759 600.157 50.2561C601.443 50.4665 602.183 50.5878 602.997 50.7217C604.499 53.9946 602.82 56.5446 601.345 59.1182C601.817 59.4679 602.283 59.8192 602.401 59.9072C601.31 61.7063 600.257 63.4421 599.001 65.5158C597.344 65.4776 594.906 63.7742 593.003 66.1882C593.475 66.5435 593.949 66.8972 594.841 67.5663C592.155 67.7174 589.816 67.8469 587.482 67.9764C587.481 68.3051 587.479 68.6405 587.477 68.9709C588.633 68.9991 589.789 69.0257 591.313 69.0589C590.019 70.1978 588.969 71.1243 587.609 72.3213C587.111 71.6738 586.681 71.1176 585.851 70.0418C584.892 70.1978 583.417 70.4369 581.617 70.7308C582.397 71.8515 582.965 72.6683 584.004 74.1609C582.559 74.488 581.649 74.7669 580.717 74.8948C573.976 75.8212 568.116 79.6283 561.371 80.7091C554.583 81.7966 547.962 83.8553 541.186 85.0308C539.744 85.2832 539.403 87.8018 537.342 86.4819C536.705 86.0735 534.908 87.6923 534.26 87.2855C531.919 85.8161 531.909 88.8611 530.349 89.0902C527.638 89.4887 525.005 88.6237 522.214 89.3791C513.813 91.6437 505.289 93.4684 496.762 95.2283C493.55 95.8941 490.174 95.7413 486.923 96.2676C483.588 96.8072 480.32 97.7204 476.977 98.2185C481.489 95.7065 492.927 93.2758 498.254 92.8524C497.308 92.7761 496.361 92.698 495.415 92.6217C495.608 92.2647 495.803 91.9061 495.994 91.5475C492.451 92.3527 488.846 92.9554 485.378 94.0097C480.403 95.5222 475.032 94.0412 470.17 96.1099C468.019 94.8614 465.719 96.6329 463.916 96.0468C461.042 95.1154 459.558 98.4144 456.6 97.3933C454.365 96.6229 451.565 97.7436 448.473 98.0823C448.194 97.9346 447.369 97.5029 446.544 97.0696C446.605 96.769 446.667 96.4669 446.725 96.1664C452.585 95.4989 458.445 94.8298 464.598 94.1309C464.734 93.9349 465.197 93.2692 465.659 92.6034C464.877 92.0854 464.185 91.6271 463.493 91.1722C463.021 91.75 462.547 92.3294 461.524 93.5846C460.862 92.2348 460.246 90.978 459.631 89.7228L458.655 91.0859C458.181 91.4893 457.703 91.8945 457.104 92.4008C456.838 91.8031 456.597 91.2619 456.251 90.4832C453.749 90.4151 451.088 90.3454 448.395 90.2723C448.144 91.5209 447.954 92.4573 447.74 93.5215C445.492 93.2011 443.295 92.8906 441.176 92.5901C440.677 93.0816 440.14 93.6178 439.388 94.3616C437.834 93.05 436.422 91.8563 435.007 90.6625C434.512 91.4877 434.3 91.8446 433.989 92.366C432.862 92.0787 431.678 91.7782 430.422 91.4578C430.88 90.7173 431.314 90.015 431.788 89.2496C432.252 89.5119 432.746 89.7925 433.501 90.2209C434.401 89.5103 435.417 88.7017 436.553 87.8018C437.101 88.705 437.505 89.3725 437.936 90.0798C439.461 89.1135 440.973 88.1555 442.648 87.0929C445.396 88.5008 448.029 86.2146 451.179 86.2312C451.958 86.7177 452.984 87.3585 454.01 87.9961C455.142 85.3695 457.914 86.4238 459.997 85.0989C459.904 84.541 459.784 83.8255 459.569 82.5537C458.886 83.432 458.568 83.8338 457.994 84.5726C457.211 83.8022 456.354 82.9638 455.448 82.0722C454.701 83.4137 454.198 84.3119 453.623 85.3446C452.219 84.9578 450.832 84.5742 449.37 84.1691C448.049 86.3441 446.124 85.7132 443.965 85.1653C442.147 84.7021 440.183 84.9312 438.154 84.8515C437.598 84.2189 436.908 83.4353 435.529 81.8663C435.229 83.8255 435.096 84.7087 434.893 86.037C433.104 86.1665 431.197 86.3043 429.291 86.4371C427.365 86.5699 425.219 87.3287 423.566 86.6745C421.347 85.7929 420.85 89.1102 418.528 87.9446C416.971 87.161 414.753 87.8566 412.847 87.8898C412.307 89.3509 411.902 90.445 411.146 92.4988C413.3 91.7915 414.605 91.3598 416.586 90.7073C416.448 90.6227 417.099 91.0195 417.929 91.5225C417.719 91.9974 417.513 92.4639 417.247 93.0782C417.611 93.3754 418.035 93.7191 418.446 94.0545C418.291 94.3218 418.158 94.8498 417.944 94.8813C416.187 95.1453 414.392 95.2001 412.654 95.5471C410.79 95.924 408.702 97.4049 407.198 96.8587C404.913 96.0302 403.301 97.4481 401.172 97.2804C400.322 96.7491 399.284 96.0966 397.938 95.2532C397.215 96.1099 396.471 96.9882 395.347 98.3198C402.019 99.9701 408.281 98.8361 415.464 98.7514C412.518 100.467 409.988 100.838 407.609 101.046C406.194 101.17 404.688 100.345 403.073 100.848C401.792 101.25 399.693 100.588 399.113 101.356C397.632 103.312 396.588 101.036 395.393 101.34C393.825 101.737 392.255 102.23 390.655 102.382C388.768 102.565 386.839 102.313 384.946 102.449C383.224 102.572 381.584 102.675 379.804 102.519C376.962 102.271 374.023 103.596 371.323 105.223C373.332 104.948 375.34 104.672 378.241 104.277C373.324 108.037 368.197 105.637 363.841 107.211C362.68 106.161 361.649 104.885 360.341 104.179C359.681 103.824 358.525 104.506 356.349 105.001C358.513 105.554 359.343 105.766 360.185 105.98C359.967 106.299 359.799 106.814 359.563 106.842C357.086 107.169 354.837 108.434 352.03 107.43C349.959 106.689 347.776 108.531 345.112 107.896C342.031 107.162 338.601 108.386 335.314 108.421C332.081 108.451 328.865 108.687 325.605 108.507C320.836 108.248 316.043 108.871 311.272 108.642C306.513 108.413 301.804 109.998 297.005 108.501C294.59 107.745 292.222 109.042 289.568 108.637C283.958 107.787 278.199 108.223 272.504 108.008C269.463 107.893 266.463 107.216 263.377 107.795C259.684 108.486 256.902 107.332 254.659 104.559C254.446 105.554 254.265 106.404 254.067 107.323C253.535 107.013 253.038 106.724 252.537 106.434C252.223 106.9 251.895 107.385 251.905 107.368C249.551 107.124 247.356 106.349 245.486 106.834C242.928 107.495 240.982 106.014 237.492 106.075C232.52 108.396 226.116 104.453 219.634 105.896C219.226 104.826 218.801 103.724 217.977 101.576C217.433 103.49 217.109 104.634 217.021 104.946C211.513 105.306 206.949 104.209 202.43 102.686L202.037 100.968C201.255 101.629 200.723 102.309 200.031 102.608C199.113 103.003 198.075 103.101 196.916 103.364C196.197 102.812 195.379 102.185 194.441 101.463L189.226 102.648C188.717 101.821 188.309 101.156 187.8 100.325C187.3 100.85 186.829 101.348 186.061 102.157C184.653 101.328 183.146 100.437 181.939 99.726C181.488 98.3911 181.174 97.4631 180.608 95.7928C179.801 98.0541 179.277 99.5168 178.725 101.064C174.851 100.405 171.135 98.9623 167.005 99.1184C163.363 99.2578 159.833 97.038 155.947 96.7774C153.802 96.6329 151.671 94.78 149.245 95.9157C147.55 94.1259 145.332 94.4297 143.242 94.0528C140.629 93.5846 137.639 94.9245 135.454 93.0268C133.25 91.1174 130.127 93.2028 128.343 90.5646C125.831 90.8302 123.454 89.4854 121.121 89.4356C118.433 89.3808 116.226 88.7399 113.94 87.4432C113.205 87.0265 112.048 87.4416 110.699 87.4881Z" fill="#2FBF7D"/>
<path fill-rule="evenodd" clip-rule="evenodd" d="M648.761 11.9661C648.654 12.5719 648.137 13.6448 648.441 14.0637C651.685 18.454 651.485 23.5693 651.663 28.5867C651.81 32.7183 652.172 36.9997 650.682 40.8474C647.921 47.9739 647.081 56.1717 640.885 61.4765C641.58 65.4577 636.028 66.0936 636.761 70.0965C633.296 72.9788 631.813 77.4134 629.093 80.8784C627.385 83.0551 625.746 85.2749 624.195 87.5777C623.599 88.4626 622.36 88.8678 621.096 89.7062C620.874 90.7306 620.543 92.2464 620.133 94.1574C618.875 95.479 617.31 97.1244 615.513 99.0171C615.698 100.081 615.941 101.489 616.204 102.99C615.58 103.405 614.956 103.822 614.331 104.239C613.745 106.892 616.012 105.698 616.917 106.339C616.237 109.899 614.178 112.525 611.618 115.019C609.376 113.931 607.1 112.832 604.605 111.622L602.711 103.312C601.691 102.602 600.685 101.899 599.627 101.161C599.221 97.121 597.128 93.3605 598.033 88.9856C598.471 86.8854 598.211 84.5726 599.542 82.7645C600.392 81.6123 599.489 79.527 601.634 78.9193C602.107 78.7848 601.91 76.3708 602.082 75.016C602.419 72.323 604.133 70.2742 605.322 68.0461C608.15 62.7367 611.036 57.3819 614.582 52.6026C618.103 47.8648 620.991 42.5602 625.444 38.5684C626.744 37.4013 627.498 35.5833 628.558 34.1098C629.586 32.6841 630.688 31.3159 632.049 29.5415C629.739 29.0707 627.418 28.6 624.758 28.0579C624.652 28.9629 624.569 29.6926 624.481 30.4572C619.206 31.1266 613.97 28.9965 608.384 29.1429L607.752 26.3734C603.416 25.9729 599.301 25.5937 595.185 25.2147C593.475 25.0289 592.572 27.8481 590.087 26.4066C590.821 25.8139 591.521 25.2479 592.223 24.684C589.512 25.8743 585.924 21.366 583.909 26.4579C579.122 22.7201 572.806 26.4386 568.42 21.7098C568.177 22.0713 567.855 22.5566 567.414 23.2192C564.18 22.7141 560.82 21.7731 557.484 21.787C554.017 21.7966 552.146 18.4038 547.954 18.401C544.177 19.9321 539.458 19.7742 534.927 17.3328C533.964 15.6846 533.077 14.1648 532.131 12.5442C532.309 11.9533 532.518 11.252 532.726 10.5512C531.864 9.97639 530.998 9.40476 530.021 8.75791C531.424 7.55586 532.799 6.37937 534.186 5.19028C533.27 4.58494 532.405 4.0128 531.32 3.29473C532.214 2.42158 533.074 1.58231 534.195 0.485031C537.282 2.98376 540.521 -0.0980635 544.17 0.705183C549.3 1.83517 554.766 0.976141 560.077 1.30621C566.278 1.68973 572.467 2.45928 578.665 3.0188C585.257 3.61285 591.84 4.23529 598.469 4.38554C603.905 4.50508 609.307 6.01627 614.797 5.87449C617.085 7.74563 619.802 4.88347 622.092 6.75179C626.44 5.25869 630.861 7.76324 635.243 6.80126C636.114 6.61017 637.116 7.05793 638.044 7.02406C642.205 6.87331 646.196 7.10824 648.761 11.9661Z" fill="#2FBF7D"/>
</svg>
